<svg xmlns="http://www.w3.org/2000/svg" width="1200" height="630" viewBox="0 0 1200 630"><rect width="1200" height="630" fill="#07110e"/><circle cx="1040" cy="90" r="280" fill="#102921"/><g opacity=".28" stroke="#6dd7ff"><path d="M0 100H1200M0 200H1200M0 300H1200M0 400H1200M0 500H1200"/><path d="M150 0V630M300 0V630M450 0V630M600 0V630M750 0V630M900 0V630M1050 0V630"/></g><text x="68" y="90" fill="#b6f35c" font-family="Arial" font-size="30" font-weight="700">HANI ASHOUR · DATA MANAGER &amp; BI</text><text x="68" y="225" fill="#f2f6ef" font-family="Arial" font-size="86" font-weight="700">I MAKE MESSY DATA</text><text x="68" y="320" fill="#b6f35c" font-family="Arial" font-size="92" font-weight="700">BEHAVE.</text><text x="72" y="400" fill="#9eb1a8" font-family="Arial" font-size="29">Trusted KPIs · Automated systems · Clear decisions</text><g transform="translate(870 315)"><circle cx="110" cy="110" r="100" fill="none" stroke="#b6f35c" opacity=".25"/><circle cx="110" cy="110" r="70" fill="none" stroke="#b6f35c" opacity=".45" stroke-dasharray="7 8"/><circle cx="110" cy="110" r="40" fill="#b6f35c"/><text x="78" y="116" fill="#07110e" font-family="Arial" font-size="22" font-weight="700">DATA</text></g></svg>
